<svg width="184" height="52" viewBox="0 0 184 52" fill="none" xmlns="http://www.w3.org/2000/svg">
<path d="M52.0085 34.2955L47.7898 49.9688H46.4091L50.6278 34.2955H52.0085ZM58.041 48H54.0012V34.9091H58.22C59.4899 34.9091 60.5765 35.1712 61.4799 35.6953C62.3833 36.2152 63.0758 36.9631 63.5574 37.9389C64.0389 38.9105 64.2797 40.0739 64.2797 41.429C64.2797 42.7926 64.0368 43.9666 63.551 44.951C63.0652 45.9311 62.3578 46.6854 61.4288 47.2138C60.4998 47.7379 59.3706 48 58.041 48ZM55.5865 46.5938H57.9387C59.0211 46.5938 59.9181 46.3849 60.6298 45.9673C61.3414 45.5497 61.872 44.9553 62.2214 44.1839C62.5708 43.4126 62.7456 42.4943 62.7456 41.429C62.7456 40.3722 62.573 39.4624 62.2278 38.6996C61.8826 37.9325 61.367 37.3445 60.6809 36.9354C59.9949 36.522 59.1404 36.3153 58.1177 36.3153H55.5865V46.5938ZM66.9387 48V34.9091H71.362C72.3848 34.9091 73.2243 35.0838 73.8805 35.4332C74.5368 35.7784 75.0226 36.2536 75.3379 36.8587C75.6532 37.4638 75.8109 38.152 75.8109 38.9233C75.8109 39.6946 75.6532 40.3786 75.3379 40.9751C75.0226 41.5717 74.5389 42.0405 73.8869 42.3814C73.2349 42.718 72.4018 42.8864 71.3876 42.8864H67.8081V41.4545H71.3365C72.0353 41.4545 72.5978 41.3523 73.024 41.1477C73.4544 40.9432 73.7654 40.6534 73.9572 40.2784C74.1532 39.8991 74.2512 39.4474 74.2512 38.9233C74.2512 38.3991 74.1532 37.9411 73.9572 37.549C73.7612 37.157 73.448 36.8544 73.0176 36.6413C72.5872 36.424 72.0183 36.3153 71.3109 36.3153H68.524V48H66.9387ZM73.1007 42.1193L76.3223 48H74.4814L71.3109 42.1193H73.1007ZM82.131 48.2045C81.2447 48.2045 80.467 47.9936 79.7979 47.5717C79.1332 47.1499 78.6133 46.5597 78.2383 45.8011C77.8675 45.0426 77.6822 44.1562 77.6822 43.142C77.6822 42.1193 77.8675 41.2266 78.2383 40.4638C78.6133 39.701 79.1332 39.1087 79.7979 38.6868C80.467 38.2649 81.2447 38.054 82.131 38.054C83.0174 38.054 83.793 38.2649 84.4577 38.6868C85.1268 39.1087 85.6467 39.701 86.0174 40.4638C86.3924 41.2266 86.5799 42.1193 86.5799 43.142C86.5799 44.1562 86.3924 45.0426 86.0174 45.8011C85.6467 46.5597 85.1268 47.1499 84.4577 47.5717C83.793 47.9936 83.0174 48.2045 82.131 48.2045ZM82.131 46.8494C82.8043 46.8494 83.3583 46.6768 83.793 46.3317C84.2276 45.9865 84.5494 45.5327 84.7582 44.9702C84.967 44.4077 85.0714 43.7983 85.0714 43.142C85.0714 42.4858 84.967 41.8743 84.7582 41.3075C84.5494 40.7408 84.2276 40.2827 83.793 39.9332C83.3583 39.5838 82.8043 39.4091 82.131 39.4091C81.4577 39.4091 80.9038 39.5838 80.4691 39.9332C80.0344 40.2827 79.7127 40.7408 79.5039 41.3075C79.2951 41.8743 79.1907 42.4858 79.1907 43.142C79.1907 43.7983 79.2951 44.4077 79.5039 44.9702C79.7127 45.5327 80.0344 45.9865 80.4691 46.3317C80.9038 46.6768 81.4577 46.8494 82.131 46.8494ZM92.59 48.2045C91.7718 48.2045 91.0495 47.9979 90.4231 47.5845C89.7967 47.1669 89.3066 46.5788 88.9529 45.8203C88.5993 45.0575 88.4224 44.1562 88.4224 43.1165C88.4224 42.0852 88.5993 41.1903 88.9529 40.4318C89.3066 39.6733 89.7988 39.0874 90.4295 38.674C91.0602 38.2607 91.7889 38.054 92.6156 38.054C93.2548 38.054 93.7598 38.1605 94.1305 38.3736C94.5055 38.5824 94.791 38.821 94.987 39.0895C95.1873 39.3537 95.3429 39.571 95.4537 39.7415H95.5815V34.9091H97.09V48H95.6326V46.4915H95.4537C95.3429 46.6705 95.1852 46.8963 94.9806 47.169C94.7761 47.4375 94.4842 47.6783 94.1049 47.8913C93.7257 48.1001 93.2207 48.2045 92.59 48.2045ZM92.7946 46.8494C93.3997 46.8494 93.911 46.6918 94.3287 46.3764C94.7463 46.0568 95.0637 45.6158 95.2811 45.0533C95.4984 44.4865 95.6071 43.8324 95.6071 43.0909C95.6071 42.358 95.5005 41.7166 95.2875 41.1669C95.0744 40.6129 94.7591 40.1825 94.3414 39.8757C93.9238 39.5646 93.4082 39.4091 92.7946 39.4091C92.1554 39.4091 91.6227 39.5732 91.1966 39.9013C90.7747 40.2251 90.4572 40.6662 90.2441 41.2244C90.0353 41.7784 89.9309 42.4006 89.9309 43.0909C89.9309 43.7898 90.0375 44.4247 90.2505 44.9957C90.4679 45.5625 90.7875 46.0142 91.2093 46.3509C91.6355 46.6832 92.1639 46.8494 92.7946 46.8494ZM100.062 48V38.1818H101.52V39.6648H101.622C101.801 39.179 102.125 38.7848 102.594 38.4822C103.062 38.1797 103.591 38.0284 104.179 38.0284C104.29 38.0284 104.428 38.0305 104.594 38.0348C104.76 38.0391 104.886 38.0455 104.971 38.054V39.5881C104.92 39.5753 104.803 39.5561 104.62 39.5305C104.441 39.5007 104.251 39.4858 104.051 39.4858C103.574 39.4858 103.148 39.5859 102.773 39.7862C102.402 39.9822 102.108 40.255 101.89 40.6044C101.677 40.9496 101.571 41.3437 101.571 41.7869V48H100.062ZM106.76 48V38.1818H108.268V48H106.76ZM107.527 36.5455C107.233 36.5455 106.979 36.4453 106.766 36.245C106.557 36.0447 106.453 35.804 106.453 35.5227C106.453 35.2415 106.557 35.0007 106.766 34.8004C106.979 34.6001 107.233 34.5 107.527 34.5C107.821 34.5 108.072 34.6001 108.281 34.8004C108.494 35.0007 108.6 35.2415 108.6 35.5227C108.6 35.804 108.494 36.0447 108.281 36.245C108.072 36.4453 107.821 36.5455 107.527 36.5455ZM114.994 51.8864C114.265 51.8864 113.639 51.7926 113.115 51.6051C112.591 51.4219 112.154 51.179 111.805 50.8764C111.459 50.5781 111.184 50.2585 110.98 49.9176L112.182 49.0739C112.318 49.2528 112.491 49.4574 112.699 49.6875C112.908 49.9219 113.194 50.1243 113.556 50.2947C113.922 50.4695 114.402 50.5568 114.994 50.5568C115.787 50.5568 116.441 50.3651 116.956 49.9815C117.472 49.598 117.73 48.9972 117.73 48.179V46.1847H117.602C117.491 46.3636 117.334 46.5852 117.129 46.8494C116.929 47.1094 116.639 47.3416 116.26 47.5462C115.885 47.7464 115.378 47.8466 114.738 47.8466C113.946 47.8466 113.234 47.6591 112.604 47.2841C111.977 46.9091 111.481 46.3636 111.114 45.6477C110.752 44.9318 110.571 44.0625 110.571 43.0398C110.571 42.0341 110.748 41.1584 111.101 40.4126C111.455 39.6626 111.947 39.0831 112.578 38.674C113.209 38.2607 113.937 38.054 114.764 38.054C115.403 38.054 115.91 38.1605 116.285 38.3736C116.665 38.5824 116.954 38.821 117.155 39.0895C117.359 39.3537 117.517 39.571 117.628 39.7415H117.781V38.1818H119.238V48.2812C119.238 49.125 119.047 49.8111 118.663 50.3395C118.284 50.8722 117.773 51.2621 117.129 51.5092C116.49 51.7607 115.778 51.8864 114.994 51.8864ZM114.943 46.4915C115.548 46.4915 116.059 46.353 116.477 46.076C116.895 45.799 117.212 45.4006 117.43 44.8807C117.647 44.3608 117.756 43.7386 117.756 43.0142C117.756 42.3068 117.649 41.6825 117.436 41.1413C117.223 40.6001 116.907 40.1761 116.49 39.8693C116.072 39.5625 115.557 39.4091 114.943 39.4091C114.304 39.4091 113.771 39.571 113.345 39.8949C112.923 40.2187 112.606 40.6534 112.393 41.1989C112.184 41.7443 112.079 42.3494 112.079 43.0142C112.079 43.696 112.186 44.299 112.399 44.8232C112.616 45.343 112.936 45.7521 113.358 46.0504C113.784 46.3445 114.312 46.4915 114.943 46.4915ZM128.187 43.9858V38.1818H129.696V48H128.187V46.3381H128.085C127.855 46.8366 127.497 47.2607 127.011 47.6101C126.525 47.9553 125.912 48.1278 125.17 48.1278C124.557 48.1278 124.011 47.9936 123.534 47.7251C123.057 47.4524 122.682 47.0433 122.409 46.4979C122.136 45.9482 122 45.2557 122 44.4205V38.1818H123.508V44.3182C123.508 45.0341 123.709 45.6051 124.109 46.0312C124.514 46.4574 125.03 46.6705 125.656 46.6705C126.031 46.6705 126.412 46.5746 126.8 46.3828C127.192 46.1911 127.52 45.897 127.785 45.5007C128.053 45.1044 128.187 44.5994 128.187 43.9858ZM136.575 48.2045C135.629 48.2045 134.813 47.9957 134.127 47.5781C133.445 47.1562 132.919 46.5682 132.548 45.8139C132.182 45.0554 131.999 44.1733 131.999 43.1676C131.999 42.1619 132.182 41.2756 132.548 40.5085C132.919 39.7372 133.435 39.1364 134.095 38.706C134.76 38.2713 135.536 38.054 136.422 38.054C136.933 38.054 137.438 38.1392 137.937 38.3097C138.435 38.4801 138.889 38.7571 139.298 39.1406C139.707 39.5199 140.033 40.0227 140.276 40.6491C140.519 41.2756 140.641 42.0469 140.641 42.9631V43.6023H133.072V42.2983H139.107C139.107 41.7443 138.996 41.25 138.774 40.8153C138.557 40.3807 138.246 40.0376 137.841 39.7862C137.44 39.5348 136.967 39.4091 136.422 39.4091C135.821 39.4091 135.301 39.5582 134.862 39.8565C134.428 40.1506 134.093 40.5341 133.859 41.0071C133.624 41.4801 133.507 41.9872 133.507 42.5284V43.3977C133.507 44.1392 133.635 44.7678 133.891 45.2834C134.151 45.7947 134.511 46.1847 134.971 46.4531C135.431 46.7173 135.966 46.8494 136.575 46.8494C136.972 46.8494 137.33 46.794 137.649 46.6832C137.973 46.5682 138.252 46.3977 138.487 46.1719C138.721 45.9418 138.902 45.6562 139.03 45.3153L140.487 45.7244C140.334 46.2188 140.076 46.6534 139.714 47.0284C139.352 47.3991 138.904 47.6889 138.371 47.8977C137.839 48.1023 137.24 48.2045 136.575 48.2045ZM149.89 40.3807L148.535 40.7642C148.45 40.5384 148.324 40.3189 148.158 40.1058C147.996 39.8885 147.774 39.7095 147.493 39.5689C147.212 39.4283 146.852 39.358 146.413 39.358C145.812 39.358 145.311 39.4964 144.911 39.7734C144.514 40.0462 144.316 40.3935 144.316 40.8153C144.316 41.1903 144.452 41.4865 144.725 41.7038C144.998 41.9212 145.424 42.1023 146.004 42.2472L147.461 42.6051C148.339 42.8182 148.993 43.1442 149.423 43.5831C149.854 44.0178 150.069 44.5781 150.069 45.2642C150.069 45.8267 149.907 46.3295 149.583 46.7727C149.263 47.2159 148.816 47.5653 148.241 47.821C147.665 48.0767 146.996 48.2045 146.234 48.2045C145.232 48.2045 144.403 47.9872 143.747 47.5526C143.091 47.1179 142.675 46.483 142.501 45.6477L143.933 45.2898C144.069 45.8182 144.327 46.2145 144.706 46.4787C145.089 46.7429 145.59 46.875 146.208 46.875C146.911 46.875 147.469 46.7259 147.883 46.4276C148.3 46.125 148.509 45.7628 148.509 45.3409C148.509 45 148.39 44.7145 148.151 44.4844C147.913 44.25 147.546 44.0753 147.052 43.9602L145.415 43.5767C144.516 43.3636 143.856 43.0334 143.434 42.5859C143.016 42.1342 142.808 41.5696 142.808 40.892C142.808 40.3381 142.963 39.848 143.274 39.4219C143.589 38.9957 144.018 38.6612 144.559 38.4183C145.104 38.1754 145.722 38.054 146.413 38.054C147.384 38.054 148.147 38.267 148.701 38.6932C149.259 39.1193 149.656 39.6818 149.89 40.3807ZM156.916 34.9091V48H155.331V36.571H155.254L152.058 38.6932V37.0824L155.331 34.9091H156.916ZM161.09 48L166.945 36.4176V36.3153H160.195V34.9091H168.582V36.392L162.752 48H161.09Z" fill="#FFC100"/>
<path d="M23 0C10.3002 0 0 11.0177 0 24.6067C0 35.4788 6.5895 44.7022 15.7301 47.9565C16.8782 48.1841 17.25 47.4213 17.25 46.7733V42.1923C10.8522 43.681 9.52008 39.2887 9.52008 39.2887C8.47358 36.4446 6.96517 35.688 6.96517 35.688C4.87792 34.1603 7.12425 34.1931 7.12425 34.1931C9.43383 34.3653 10.649 36.7296 10.649 36.7296C12.6998 40.4904 16.0291 39.4036 17.342 38.7741C17.5471 37.1849 18.1432 36.0981 18.8025 35.485C13.6946 34.8595 8.32408 32.7495 8.32408 23.3231C8.32408 20.6348 9.223 18.4407 10.6931 16.7182C10.4554 16.0969 9.66767 13.5932 10.9173 10.2056C10.9173 10.2056 12.8493 9.54536 17.2442 12.7278C19.0785 12.1824 21.045 11.9097 23 11.8994C24.955 11.9097 26.9234 12.1824 28.7615 12.7278C33.1526 9.54536 35.0807 10.2056 35.0807 10.2056C36.3323 13.5952 35.5446 16.099 35.3069 16.7182C36.7827 18.4407 37.674 20.6368 37.674 23.3231C37.674 32.7741 32.2939 34.8554 27.1726 35.4644C27.9967 36.2273 28.75 37.7242 28.75 40.0208V46.7733C28.75 47.4274 29.118 48.1964 30.2852 47.9544C39.4182 44.6961 46 35.4747 46 24.6067C46 11.0177 35.7017 0 23 0Z" fill="#FFC100"/>
</svg>
